<svg width="11" height="14" viewBox="0 0 11 14" fill="none" xmlns="http://www.w3.org/2000/svg">
<rect width="11" height="14" rx="2" fill="#575757"/>
<path d="M5.334 9.096C4.918 9.096 4.554 9.002 4.242 8.814C3.93 8.626 3.686 8.368 3.51 8.04C3.338 7.708 3.252 7.332 3.252 6.912C3.252 6.488 3.34 6.112 3.516 5.784C3.692 5.456 3.936 5.198 4.248 5.01C4.56 4.822 4.92 4.728 5.328 4.728C5.792 4.728 6.186 4.84 6.51 5.064C6.834 5.288 7.054 5.6 7.17 6H6.33C6.262 5.84 6.142 5.71 5.97 5.61C5.798 5.51 5.584 5.46 5.328 5.46C5.08 5.46 4.862 5.52 4.674 5.64C4.486 5.756 4.34 5.924 4.236 6.144C4.132 6.36 4.08 6.616 4.08 6.912C4.08 7.208 4.132 7.464 4.236 7.68C4.34 7.896 4.488 8.064 4.68 8.184C4.872 8.304 5.098 8.364 5.358 8.364C5.57 8.364 5.758 8.322 5.922 8.238C6.086 8.154 6.214 8.04 6.306 7.896C6.398 7.752 6.444 7.592 6.444 7.416V7.35H5.328V6.654H7.248V7.236C7.248 7.588 7.17 7.904 7.014 8.184C6.862 8.464 6.642 8.686 6.354 8.85C6.07 9.014 5.73 9.096 5.334 9.096Z" fill="#E6E6E6"/>
</svg>
