<svg width="28" height="14" viewBox="0 0 28 14" fill="none" xmlns="http://www.w3.org/2000/svg">
<rect width="28" height="14" rx="2" fill="#575757"/>
<path d="M3.474 9V4.824H4.266L6.336 7.752V4.824H7.128V9H6.336L4.266 6.072V9H3.474ZM8.45161 6.912C8.45161 6.488 8.53561 6.112 8.70361 5.784C8.87561 5.452 9.11161 5.194 9.41161 5.01C9.71561 4.822 10.0656 4.728 10.4616 4.728C10.8176 4.728 11.1216 4.792 11.3736 4.92C11.6256 5.044 11.8276 5.216 11.9796 5.436C12.1316 5.656 12.2376 5.908 12.2976 6.192H11.4516C11.3996 5.968 11.2876 5.79 11.1156 5.658C10.9476 5.526 10.7296 5.46 10.4616 5.46C10.2256 5.46 10.0196 5.52 9.84361 5.64C9.66761 5.756 9.52961 5.924 9.42961 6.144C9.32961 6.36 9.27961 6.616 9.27961 6.912C9.27961 7.208 9.32961 7.466 9.42961 7.686C9.52961 7.902 9.66761 8.07 9.84361 8.19C10.0196 8.306 10.2256 8.364 10.4616 8.364C10.7296 8.364 10.9516 8.3 11.1276 8.172C11.3036 8.044 11.4156 7.874 11.4636 7.662H12.2976C12.2416 7.938 12.1356 8.184 11.9796 8.4C11.8276 8.616 11.6256 8.786 11.3736 8.91C11.1216 9.034 10.8176 9.096 10.4616 9.096C10.0656 9.096 9.71561 9.004 9.41161 8.82C9.11161 8.632 8.87561 8.374 8.70361 8.046C8.53561 7.714 8.45161 7.336 8.45161 6.912ZM13.574 7.59V6.936H15.566V7.59H13.574ZM18.3282 9V5.646L17.3322 5.952V5.25L19.1202 4.746V9H18.3282ZM24.228 4.824V5.466L22.662 9H21.816L23.4 5.526H21.234V4.824H24.228Z" fill="#E6E6E6"/>
</svg>
