<svg width="16" height="14" viewBox="0 0 16 14" fill="none" xmlns="http://www.w3.org/2000/svg">
<rect x="0.5" y="0.5" width="15" height="13" rx="1.5" fill="#575757"/>
<rect x="0.5" y="0.5" width="15" height="13" rx="1.5" stroke="black"/>
<path d="M3.474 9V4.824H5.124C5.648 4.824 6.054 4.952 6.342 5.208C6.63 5.464 6.774 5.802 6.774 6.222C6.774 6.646 6.63 6.986 6.342 7.242C6.054 7.498 5.648 7.626 5.124 7.626H4.29V9H3.474ZM4.29 6.918H5.016C5.336 6.918 5.57 6.858 5.718 6.738C5.87 6.618 5.946 6.446 5.946 6.222C5.946 6.002 5.87 5.832 5.718 5.712C5.57 5.592 5.336 5.532 5.016 5.532H4.29V6.918ZM9.91252 9.096C9.49652 9.096 9.13252 9.002 8.82052 8.814C8.50852 8.626 8.26452 8.368 8.08852 8.04C7.91652 7.708 7.83052 7.332 7.83052 6.912C7.83052 6.488 7.91852 6.112 8.09452 5.784C8.27052 5.456 8.51452 5.198 8.82652 5.01C9.13852 4.822 9.49852 4.728 9.90652 4.728C10.3705 4.728 10.7645 4.84 11.0885 5.064C11.4125 5.288 11.6325 5.6 11.7485 6H10.9085C10.8405 5.84 10.7205 5.71 10.5485 5.61C10.3765 5.51 10.1625 5.46 9.90652 5.46C9.65852 5.46 9.44052 5.52 9.25252 5.64C9.06452 5.756 8.91852 5.924 8.81452 6.144C8.71052 6.36 8.65852 6.616 8.65852 6.912C8.65852 7.208 8.71052 7.464 8.81452 7.68C8.91852 7.896 9.06652 8.064 9.25852 8.184C9.45052 8.304 9.67652 8.364 9.93652 8.364C10.1485 8.364 10.3365 8.322 10.5005 8.238C10.6645 8.154 10.7925 8.04 10.8845 7.896C10.9765 7.752 11.0225 7.592 11.0225 7.416V7.35H9.90652V6.654H11.8265V7.236C11.8265 7.588 11.7485 7.904 11.5925 8.184C11.4405 8.464 11.2205 8.686 10.9325 8.85C10.6485 9.014 10.3085 9.096 9.91252 9.096Z" fill="#E6E6E6"/>
</svg>
