<svg width="11" height="14" viewBox="0 0 11 14" fill="none" xmlns="http://www.w3.org/2000/svg">
<rect width="11" height="14" rx="2" fill="#575757"/>
<path d="M3.474 9V4.824H5.178C5.69 4.824 6.088 4.946 6.372 5.19C6.66 5.434 6.804 5.764 6.804 6.18C6.804 6.48 6.726 6.736 6.57 6.948C6.418 7.16 6.214 7.318 5.958 7.422L6.99 9H6.042L5.124 7.554H4.29V9H3.474ZM4.29 6.846H5.07C5.382 6.846 5.61 6.79 5.754 6.678C5.902 6.562 5.976 6.394 5.976 6.174C5.976 5.954 5.902 5.792 5.754 5.688C5.61 5.584 5.382 5.532 5.07 5.532H4.29V6.846Z" fill="#E6E6E6"/>
</svg>
