<svg width="27" height="14" viewBox="0 0 27 14" fill="none" xmlns="http://www.w3.org/2000/svg">
<rect width="27" height="14" rx="2" fill="#575757"/>
<path d="M5.43 9H4.614V5.538H3.222V4.824H6.822V5.538H5.43V9ZM11.8123 4.824L10.2103 9H9.35827L7.75627 4.824H8.64427L9.80227 8.016L10.9543 4.824H11.8123ZM12.8005 7.59V6.936H14.7925V7.59H12.8005ZM17.5548 9V5.646L16.5588 5.952V5.25L18.3468 4.746V9H17.5548ZM22.2786 9V8.052H20.2566V7.446L22.2786 4.824H23.0466V7.392H23.6586V8.052H23.0466V9H22.2786ZM21.0726 7.392H22.2786V5.838L21.0726 7.392Z" fill="#E6E6E6"/>
</svg>
