<svg width="24" height="14" viewBox="0 0 24 14" fill="none" xmlns="http://www.w3.org/2000/svg">
<rect width="24" height="14" rx="2" fill="#575757"/>
<path d="M5.43 9H4.614V5.538H3.222V4.824H6.822V5.538H5.43V9ZM11.8123 4.824L10.2103 9H9.35827L7.75627 4.824H8.64427L9.80227 8.016L10.9543 4.824H11.8123ZM12.8005 7.59V6.936H14.7925V7.59H12.8005ZM18.1848 9.096C17.7688 9.096 17.4048 9.002 17.0928 8.814C16.7808 8.626 16.5368 8.368 16.3608 8.04C16.1888 7.708 16.1028 7.332 16.1028 6.912C16.1028 6.488 16.1908 6.112 16.3668 5.784C16.5428 5.456 16.7868 5.198 17.0988 5.01C17.4108 4.822 17.7708 4.728 18.1788 4.728C18.6428 4.728 19.0368 4.84 19.3608 5.064C19.6848 5.288 19.9048 5.6 20.0208 6H19.1808C19.1128 5.84 18.9928 5.71 18.8208 5.61C18.6488 5.51 18.4348 5.46 18.1788 5.46C17.9308 5.46 17.7128 5.52 17.5248 5.64C17.3368 5.756 17.1908 5.924 17.0868 6.144C16.9828 6.36 16.9308 6.616 16.9308 6.912C16.9308 7.208 16.9828 7.464 17.0868 7.68C17.1908 7.896 17.3388 8.064 17.5308 8.184C17.7228 8.304 17.9488 8.364 18.2088 8.364C18.4208 8.364 18.6088 8.322 18.7728 8.238C18.9368 8.154 19.0648 8.04 19.1568 7.896C19.2488 7.752 19.2948 7.592 19.2948 7.416V7.35H18.1788V6.654H20.0988V7.236C20.0988 7.588 20.0208 7.904 19.8648 8.184C19.7128 8.464 19.4928 8.686 19.2048 8.85C18.9208 9.014 18.5808 9.096 18.1848 9.096Z" fill="#E6E6E6"/>
</svg>
