<svg width="30" height="14" viewBox="0 0 30 14" fill="none" xmlns="http://www.w3.org/2000/svg">
<rect width="30" height="14" rx="2" fill="#575757"/>
<path d="M5.43 9H4.614V5.538H3.222V4.824H6.822V5.538H5.43V9ZM11.8123 4.824L10.2103 9H9.35827L7.75627 4.824H8.64427L9.80227 8.016L10.9543 4.824H11.8123ZM12.8005 7.59V6.936H14.7925V7.59H12.8005ZM17.1048 9H16.3248V4.824H17.2368L18.5508 6.96L19.8348 4.824H20.7468V9H19.9608V5.97L18.5328 8.316L17.1048 5.976V9ZM25.112 9L24.764 8.052H23.078L22.736 9H21.902L23.516 4.824H24.362L25.976 9H25.112ZM23.336 7.344H24.512L23.924 5.73L23.336 7.344Z" fill="#E6E6E6"/>
</svg>
