<svg width="28" height="14" viewBox="0 0 28 14" fill="none" xmlns="http://www.w3.org/2000/svg">
<rect width="28" height="14" rx="2" fill="#575757"/>
<path d="M5.43 9H4.614V5.538H3.222V4.824H6.822V5.538H5.43V9ZM11.8123 4.824L10.2103 9H9.35827L7.75627 4.824H8.64427L9.80227 8.016L10.9543 4.824H11.8123ZM12.8005 7.59V6.936H14.7925V7.59H12.8005ZM16.3248 9V4.824H17.9748C18.4988 4.824 18.9048 4.952 19.1928 5.208C19.4808 5.464 19.6248 5.802 19.6248 6.222C19.6248 6.646 19.4808 6.986 19.1928 7.242C18.9048 7.498 18.4988 7.626 17.9748 7.626H17.1408V9H16.3248ZM17.1408 6.918H17.8668C18.1868 6.918 18.4208 6.858 18.5688 6.738C18.7208 6.618 18.7968 6.446 18.7968 6.222C18.7968 6.002 18.7208 5.832 18.5688 5.712C18.4208 5.592 18.1868 5.532 17.8668 5.532H17.1408V6.918ZM22.7633 9.096C22.3473 9.096 21.9833 9.002 21.6713 8.814C21.3593 8.626 21.1153 8.368 20.9393 8.04C20.7673 7.708 20.6813 7.332 20.6813 6.912C20.6813 6.488 20.7693 6.112 20.9453 5.784C21.1213 5.456 21.3653 5.198 21.6773 5.01C21.9893 4.822 22.3493 4.728 22.7573 4.728C23.2213 4.728 23.6153 4.84 23.9393 5.064C24.2633 5.288 24.4833 5.6 24.5993 6H23.7593C23.6913 5.84 23.5713 5.71 23.3993 5.61C23.2273 5.51 23.0133 5.46 22.7573 5.46C22.5093 5.46 22.2913 5.52 22.1033 5.64C21.9153 5.756 21.7693 5.924 21.6653 6.144C21.5613 6.36 21.5093 6.616 21.5093 6.912C21.5093 7.208 21.5613 7.464 21.6653 7.68C21.7693 7.896 21.9173 8.064 22.1093 8.184C22.3013 8.304 22.5273 8.364 22.7873 8.364C22.9993 8.364 23.1873 8.322 23.3513 8.238C23.5153 8.154 23.6433 8.04 23.7353 7.896C23.8273 7.752 23.8733 7.592 23.8733 7.416V7.35H22.7573V6.654H24.6773V7.236C24.6773 7.588 24.5993 7.904 24.4433 8.184C24.2913 8.464 24.0713 8.686 23.7833 8.85C23.4993 9.014 23.1593 9.096 22.7633 9.096Z" fill="#E6E6E6"/>
</svg>
