<?xml version="1.0" encoding="UTF-8"?>
<svg xmlns="http://www.w3.org/2000/svg" viewBox="0 0 88 88">
  <circle cx="44" cy="44" r="41.6" fill="#001B36" stroke="#FFCC00" stroke-width="4.6"/>
  <path d="M28 32h6v3.4c2.2-2.6 4.8-4 7.8-4 1.6 0 3 .3 4.2 1 1.2.7 2.1 1.7 2.9 3 1.1-1.3 2.3-2.3 3.6-3 1.3-.7 2.6-1 4.1-1 1.8 0 3.4.4 4.7 1.1 1.3.7 2.2 1.8 2.9 3.3.5 1.1.7 2.8.7 5.2v16h-6.6V42c0-2.5-.2-4.1-.7-4.8-.6-.9-1.6-1.4-2.8-1.4-.9 0-1.8.3-2.6.8-.8.6-1.4 1.4-1.8 2.5-.4 1.1-.5 2.8-.5 5.2v12h-6.6V42c0-2.4-.1-4-.4-4.7-.2-.7-.6-1.2-1.1-1.6-.5-.3-1.2-.5-2-.5-1 0-1.9.3-2.8.8-.8.5-1.4 1.3-1.8 2.4-.4 1-.5 2.8-.5 5.2v12.2h-6.6V32z" fill="#FFFFFF"/>
</svg>